<svg xmlns="http://www.w3.org/2000/svg" xmlns:xlink="http://www.w3.org/1999/xlink" width="90" height="70" viewBox="0 0 90 70"><defs><style>.a{fill:#fff;stroke:#707070;}.b{fill:none;}.c{clip-path:url(#a);}.d{clip-path:url(#b);}.e,.f{fill:#ed204c;}.f{fill-rule:evenodd;}</style><clipPath id="a"><rect class="a" width="90" height="70" transform="translate(69 24)"/></clipPath><clipPath id="b"><rect class="b" width="170.976" height="53.273"/></clipPath></defs><g class="c" transform="translate(-69 -24)"><g transform="translate(87 34)"><g class="d"><path class="e" d="M18.844,81.171a9.6,9.6,0,0,1-9.421,9.767,9.773,9.773,0,0,1,0-19.533,9.6,9.6,0,0,1,9.421,9.767" transform="translate(0 -46.321)"/><path class="f" d="M53.447,13.174C52.5,9.959,50.925,7.461,45.612,7.38c-5.012-.076-10,4.547-9.169,11.159.871,6.976,6.091,5.764,10.367,8.68,5.437,3.7,1.574,9.449,2.79,15.7,1.986,10.225,18.8,7.793,18.142-3.367.016-.192,0,.195,0,0a7.568,7.568,0,0,0-4.864-7.069c-.063-.035-4.739-2.294-5.342-2.661C53.6,27.43,53.883,21.871,53.8,17.076a12.955,12.955,0,0,0-.358-3.9" transform="translate(-23.582 -4.787)"/><path class="f" d="M127.066,13.174c-.944-3.215-2.522-5.713-7.834-5.794-5.012-.076-10,4.547-9.169,11.159.871,6.976,6.091,5.764,10.367,8.68,5.437,3.7,1.574,9.449,2.79,15.7,1.986,10.225,18.8,7.793,18.142-3.367.016-.192,0,.195,0,0a7.568,7.568,0,0,0-4.864-7.069c-.063-.035-4.739-2.294-5.341-2.661-3.932-2.394-3.653-7.952-3.731-12.747a12.955,12.955,0,0,0-.358-3.9" transform="translate(-71.34 -4.787)"/><path class="e" d="M223.745,137.35h-1.564v4.361a2.861,2.861,0,0,1-.459.048,2.956,2.956,0,0,1-.451-.048V137.35H219.7a1.767,1.767,0,0,1,0-.822h4.047a1.785,1.785,0,0,1,.048.411,1.838,1.838,0,0,1-.048.411" transform="translate(-142.489 -88.567)"/><path class="e" d="M240.625,136.461v5.167a1.942,1.942,0,0,1-.435.048,2.581,2.581,0,0,1-.484-.048V139.42h-2.443v2.209a2.219,2.219,0,0,1-.459.048,2.259,2.259,0,0,1-.451-.048v-5.167a1.6,1.6,0,0,1,.435-.048,1.866,1.866,0,0,1,.476.048v2.12h2.443v-2.12a2.281,2.281,0,0,1,.459-.048,2.218,2.218,0,0,1,.459.048" transform="translate(-153.325 -88.493)"/><path class="e" d="M258.333,141.276a1.513,1.513,0,0,1-.057.427h-3.386v-5.176H258.2a1.822,1.822,0,0,1,.048.419,1.752,1.752,0,0,1-.048.411h-2.4v1.282h2.137a1.784,1.784,0,0,1,.048.411,1.835,1.835,0,0,1-.048.411H255.8v1.419h2.475a1.332,1.332,0,0,1,.057.395" transform="translate(-165.35 -88.567)"/><path class="e" d="M280.757,141.557a1.637,1.637,0,0,1-.572.089,1.947,1.947,0,0,1-.379-.032l-.459-1.241h-2.032l-.443,1.241a2.414,2.414,0,0,1-.411.032,1.241,1.241,0,0,1-.508-.089l1.926-5.119a1.906,1.906,0,0,1,.476-.048,1.74,1.74,0,0,1,.459.048Zm-1.693-1.959-.6-1.612-.145-.476-.145.476-.58,1.612Z" transform="translate(-179.013 -88.478)"/><path class="e" d="M298.318,141.491a2.808,2.808,0,0,1-.726.081,1.7,1.7,0,0,1-.29-.016l-1.153-1.919h-.121c-.242,0-.5,0-.758-.016v1.919a2.161,2.161,0,0,1-.46.048,2.279,2.279,0,0,1-.459-.048v-5.095a8.237,8.237,0,0,1,1.653-.17c1.435,0,2.056.637,2.056,1.6a1.618,1.618,0,0,1-1.008,1.556Zm-2.265-2.636c.774,0,1.08-.4,1.08-.927,0-.54-.346-.862-1.088-.862-.266,0-.524.016-.774.04v1.733c.266.016.532.016.782.016" transform="translate(-190.949 -88.403)"/><path class="e" d="M313.016,137.35h-1.564v4.361a2.862,2.862,0,0,1-.46.048,2.957,2.957,0,0,1-.451-.048V137.35h-1.572a1.767,1.767,0,0,1,0-.822h4.047a1.786,1.786,0,0,1,.048.411,1.84,1.84,0,0,1-.048.411" transform="translate(-200.4 -88.567)"/><path class="e" d="M331.978,138.824a2.646,2.646,0,1,1,2.644,2.725,2.6,2.6,0,0,1-2.644-2.725m4.305,0a1.672,1.672,0,1,0-1.661,1.87,1.674,1.674,0,0,0,1.661-1.87" transform="translate(-215.358 -88.284)"/><path class="e" d="M353.424,137.366v1.5h2.1a2.131,2.131,0,0,1,0,.822h-2.1V141.7a2.186,2.186,0,0,1-.46.048,2.223,2.223,0,0,1-.451-.048v-5.176h3.281a2.212,2.212,0,0,1,0,.838Z" transform="translate(-228.679 -88.567)"/><path class="e" d="M376.453,137.35h-1.564v4.361a2.862,2.862,0,0,1-.459.048,2.956,2.956,0,0,1-.451-.048V137.35h-1.572a1.765,1.765,0,0,1,0-.822h4.047a1.783,1.783,0,0,1,.048.411,1.836,1.836,0,0,1-.048.411" transform="translate(-241.552 -88.567)"/><path class="e" d="M392.5,141.276a1.512,1.512,0,0,1-.057.427h-3.386v-5.176h3.313a1.822,1.822,0,0,1,.048.419,1.752,1.752,0,0,1-.048.411h-2.4v1.282h2.137a1.784,1.784,0,0,1,.048.411,1.835,1.835,0,0,1-.048.411h-2.137v1.419h2.475a1.331,1.331,0,0,1,.057.395" transform="translate(-252.388 -88.567)"/><path class="e" d="M407.558,141.195a1.965,1.965,0,0,1-.048.419h-3.168v-5.176a2.144,2.144,0,0,1,.451-.048,2.218,2.218,0,0,1,.46.048v4.354h2.257a1.715,1.715,0,0,1,.048.4" transform="translate(-262.3 -88.478)"/><path class="e" d="M421.847,141.276a1.512,1.512,0,0,1-.057.427H418.4v-5.176h3.313a1.822,1.822,0,0,1,.048.419,1.752,1.752,0,0,1-.048.411h-2.4v1.282h2.137a1.784,1.784,0,0,1,.048.411,1.835,1.835,0,0,1-.048.411h-2.137v1.419h2.475a1.331,1.331,0,0,1,.057.395" transform="translate(-271.424 -88.567)"/><path class="e" d="M432.492,138.832a2.619,2.619,0,0,1,2.66-2.741,2.532,2.532,0,0,1,1.588.484,1.064,1.064,0,0,1-.5.718,1.785,1.785,0,0,0-1.072-.339,1.871,1.871,0,1,0,1.153,3.353.927.927,0,0,1,.484.718,2.7,2.7,0,0,1-4.313-2.193" transform="translate(-280.562 -88.284)"/><path class="e" d="M448.483,138.824a2.646,2.646,0,1,1,2.644,2.725,2.6,2.6,0,0,1-2.644-2.725m4.305,0a1.672,1.672,0,1,0-1.661,1.87,1.674,1.674,0,0,0,1.661-1.87" transform="translate(-290.936 -88.284)"/><path class="e" d="M474.145,136.478v5.151a2.1,2.1,0,0,1-.427.048,2.244,2.244,0,0,1-.443-.048V138.8l.04-.75-.137.387L472,141.161a2.524,2.524,0,0,1-.4.032,2.568,2.568,0,0,1-.395-.032l-1.217-2.741-.145-.363.032.742v2.83a1.906,1.906,0,0,1-.854,0v-5.151a1.909,1.909,0,0,1,.492-.065,2.109,2.109,0,0,1,.443.04l1.6,3.491.1.258.081-.258,1.5-3.491a2.333,2.333,0,0,1,.435-.032,2.025,2.025,0,0,1,.484.057" transform="translate(-304.257 -88.493)"/><path d="M244.343,15.815v9.522a15,15,0,0,1-4.777,0V16.866c0-1.879-.892-2.866-2.675-2.866a4.09,4.09,0,0,0-2.548.86c.032.319.064.637.064.955v9.522a15.079,15.079,0,0,1-2.388.191,14.394,14.394,0,0,1-2.357-.191V16.866c0-1.879-.924-2.866-2.707-2.866a4.7,4.7,0,0,0-2.452.637v10.7a15.079,15.079,0,0,1-2.388.191,14.684,14.684,0,0,1-2.357-.191V12.216A12.472,12.472,0,0,1,227.4,9.7a7.917,7.917,0,0,1,4.936,1.433,9.484,9.484,0,0,1,5-1.433c4.746,0,7.006,2.58,7.006,6.115" transform="translate(-142.559 -6.292)"/><path d="M296.727,17.789c0-4.873,3.5-8.09,8.312-8.09s8.249,3.153,8.249,8.09c0,4.84-3.5,8.058-8.312,8.058s-8.248-3.058-8.248-8.058m11.783,0c0-2.484-1.274-4.109-3.5-4.109s-3.535,1.624-3.535,4.109c0,2.452,1.306,4.108,3.535,4.108s3.5-1.656,3.5-4.108" transform="translate(-192.49 -6.292)"/><path d="M365.968,16.164v9.172a15,15,0,0,1-4.777,0V16.929c0-2.165-1.178-2.93-2.866-2.93a5.121,5.121,0,0,0-2.548.637v10.7a15.082,15.082,0,0,1-2.388.191,14.684,14.684,0,0,1-2.357-.191V12.215A11.855,11.855,0,0,1,358.675,9.7c5.032,0,7.293,2.739,7.293,6.465" transform="translate(-227.718 -6.292)"/><path d="M412.354,17.835a7.547,7.547,0,0,1-4.9,1.688c-3.471,0-6.083-1.465-6.083-5.159V8.058h-2.579a12.706,12.706,0,0,1-.159-1.974,12.883,12.883,0,0,1,.159-1.911h2.579V.192A15.786,15.786,0,0,1,403.787,0a13.629,13.629,0,0,1,2.293.191V4.173h5.287a9.2,9.2,0,0,1,.223,1.879,10.481,10.481,0,0,1-.223,2.006H406.08v5.127c0,1.72.8,2.294,2.2,2.294a3.2,3.2,0,0,0,2.1-.892,4.844,4.844,0,0,1,1.975,3.248" transform="translate(-258.594 -0.001)"/><path d="M456.834,11.352c-1.306,9.65-5,16.751-11.815,21.624a4.869,4.869,0,0,1-2.835-3.28,22.752,22.752,0,0,0,4.14-4.013,39.661,39.661,0,0,1-5.669-14.363,17.687,17.687,0,0,1,3.471-.35,16.334,16.334,0,0,1,1.784.1,45.775,45.775,0,0,0,2.929,10.287,6.055,6.055,0,0,1,.319.86,4.63,4.63,0,0,1,.255-.86A39.866,39.866,0,0,0,451.9,11.065a18.588,18.588,0,0,1,1.879-.1,12.525,12.525,0,0,1,3.057.382" transform="translate(-285.858 -7.116)"/><path d="M243.706,85.814v9.344a14.764,14.764,0,0,1-4.688,0V86.845c0-1.844-.875-2.812-2.625-2.812a4.014,4.014,0,0,0-2.5.843c.031.313.063.625.063.937v9.344a14.891,14.891,0,0,1-2.344.187,14.215,14.215,0,0,1-2.313-.187V86.845c0-1.844-.906-2.812-2.656-2.812a4.6,4.6,0,0,0-2.406.625v10.5a14.891,14.891,0,0,1-2.344.187,14.492,14.492,0,0,1-2.312-.187V82.283a12.236,12.236,0,0,1,7.5-2.469,7.767,7.767,0,0,1,4.843,1.406,9.3,9.3,0,0,1,4.906-1.406c4.656,0,6.875,2.531,6.875,6" transform="translate(-142.445 -51.776)"/><path d="M295.106,87.75c0-4.781,3.437-7.937,8.156-7.937s8.094,3.093,8.094,7.937c0,4.75-3.438,7.906-8.156,7.906s-8.093-3-8.093-7.906m11.562,0c0-2.437-1.25-4.031-3.437-4.031s-3.469,1.594-3.469,4.031c0,2.406,1.281,4.031,3.469,4.031s3.437-1.625,3.437-4.031" transform="translate(-191.438 -51.776)"/><path d="M363.823,77.669c0,5.032-3.407,8.063-8.782,8.063a14.536,14.536,0,0,1-6.562-1.437V64.7a11.733,11.733,0,0,1,2.313-.187,11.856,11.856,0,0,1,2.343.187v5.656a7.586,7.586,0,0,1,2.531-.375c4.656,0,8.157,2.656,8.157,7.687m-4.688.188a3.568,3.568,0,0,0-3.781-3.875,6.493,6.493,0,0,0-2.219.375v7.094a7.4,7.4,0,0,0,2.219.344c2.406,0,3.781-1.532,3.781-3.938" transform="translate(-226.062 -41.851)"/><path d="M398.206,62.669a2.813,2.813,0,0,1,5.625,0,2.812,2.812,0,1,1-5.625,0m.469,19.562V67.388a14.09,14.09,0,0,1,2.312-.188,15.368,15.368,0,0,1,2.344.188V82.231a14.273,14.273,0,0,1-2.344.188,14.751,14.751,0,0,1-2.312-.188" transform="translate(-258.32 -38.85)"/><path d="M422.313,85.347V64.879a13.437,13.437,0,0,1,2.281-.188,15.858,15.858,0,0,1,2.406.188V85.347a13.892,13.892,0,0,1-2.313.188,15.54,15.54,0,0,1-2.375-.188" transform="translate(-273.959 -41.966)"/><path d="M457.665,89.08H447.79c.281,2.094,1.438,3.031,3.656,3.031a7.706,7.706,0,0,0,4.375-1.5,4.738,4.738,0,0,1,1.687,3.156,10.343,10.343,0,0,1-6.562,2.094c-4.594,0-7.906-2.844-7.906-7.812a7.594,7.594,0,0,1,7.75-7.969c4.187,0,7.031,2.656,7.031,6.812a12.878,12.878,0,0,1-.156,2.187m-4.25-2.625a2.564,2.564,0,0,0-2.594-2.844,2.936,2.936,0,0,0-3.031,2.844Z" transform="translate(-287.405 -51.949)"/></g></g></g></svg>